/* XPM */
static char *_9587fbbe9ea4e3da7961a3e692d072fcL26tir4olMLqTkK[] = {
/* columns rows colors chars-per-pixel */
"50 50 240 2 ",
"   c #030509",
".  c #191818",
"X  c #141714",
"o  c #300000",
"O  c #27281B",
"+  c #2D3919",
"@  c #36341C",
"#  c #1C1923",
"$  c #2C1E2B",
"%  c #133729",
"&  c #2B2827",
"*  c #312D2B",
"=  c #312D23",
"-  c #2B3725",
";  c #373829",
":  c #393532",
">  c #33203C",
",  c #162E18",
"<  c #4A2E1A",
"1  c #782510",
"2  c #443A23",
"3  c #533A22",
"4  c #443B39",
"5  c #423F37",
"6  c #492B29",
"7  c #71322A",
"8  c #32461D",
"9  c #184427",
"0  c #0C472C",
"q  c #234529",
"w  c #3C4527",
"e  c #3A4C33",
"r  c #356011",
"t  c #484A13",
"y  c #4D7106",
"u  c #424C24",
"i  c #444A28",
"p  c #49552A",
"a  c #474837",
"s  c #555534",
"d  c #4D582F",
"f  c #6D482F",
"g  c #57672C",
"h  c #5D722C",
"j  c #5C6B32",
"k  c #596834",
"l  c #546C35",
"z  c #65792D",
"x  c #636B35",
"c  c #637434",
"v  c #657A34",
"b  c #6A7B35",
"n  c #657539",
"m  c #69793B",
"M  c #69763B",
"N  c #686B06",
"B  c #3A2D43",
"V  c #483B4A",
"C  c #503C51",
"Z  c #3F5C48",
"A  c #5E5749",
"S  c #5C5353",
"D  c #524C4E",
"F  c #645642",
"G  c #665B56",
"H  c #52694E",
"J  c #6D6D4D",
"K  c #6B5A66",
"L  c #7B6A66",
"P  c #7E6D79",
"I  c #796674",
"U  c #777672",
"Y  c #4A7762",
"T  c #8D0402",
"R  c #983E2C",
"E  c #8F332B",
"W  c #B63D35",
"Q  c #AF3C2C",
"!  c #CB3B2C",
"~  c #C43D3A",
"^  c #8B422A",
"/  c #AA442E",
"(  c #C5472D",
")  c #816D75",
"_  c #816D7A",
"`  c #867678",
"'  c #8A7D6E",
"]  c #885854",
"[  c #759303",
"{  c #7B9D01",
"}  c #7D9D0B",
"|  c #7A9816",
" . c #628414",
".. c #7A9728",
"X. c #6D8339",
"o. c #768A39",
"O. c #7D933C",
"+. c #7A9437",
"@. c #72892E",
"#. c #7A8B44",
"$. c #7D9444",
"%. c #718C4A",
"&. c #6E837A",
"*. c #829A17",
"=. c #839D2C",
"-. c #839D33",
";. c #839D3C",
":. c #809537",
">. c #88A327",
",. c #83A23B",
"<. c #8AA43C",
"1. c #8BA93E",
"2. c #89A734",
"3. c #8BB536",
"4. c #96B33C",
"5. c #81A10F",
"6. c #859C43",
"7. c #889D47",
"8. c #8A9D5B",
"9. c #8C934E",
"0. c #8BA343",
"q. c #8EAA44",
"w. c #8CA44A",
"e. c #89A445",
"r. c #91AC44",
"t. c #93AC4A",
"y. c #92A54B",
"u. c #94B144",
"i. c #99B444",
"p. c #95BA42",
"a. c #9CBB45",
"s. c #96B34B",
"d. c #9BB54C",
"f. c #9EBB4C",
"g. c #96BA48",
"h. c #96A757",
"j. c #9DB854",
"k. c #8FAB4C",
"l. c #A1BD4C",
"z. c #A1BE47",
"x. c #A5A85C",
"c. c #A3BE52",
"v. c #A6BA55",
"b. c #86837C",
"n. c #988379",
"m. c #92916A",
"M. c #A38C7C",
"N. c #97A965",
"B. c #96B370",
"V. c #A6AA63",
"C. c #B6BB67",
"Z. c #BAAA79",
"A. c #B4AC6E",
"S. c #C3AA7E",
"D. c #C3B779",
"F. c #9EC148",
"G. c #A3C24C",
"H. c #A3C346",
"J. c #A4C253",
"K. c #AAC558",
"L. c #BDC56D",
"P. c #C2CA72",
"I. c #836D83",
"U. c #8E7988",
"Y. c #71958B",
"T. c #848A82",
"R. c #9A8788",
"E. c #95928E",
"W. c #A79489",
"Q. c #A99299",
"!. c #A8B688",
"~. c #B2B093",
"^. c #B299A9",
"/. c #BAA4A5",
"(. c #BEA4AB",
"). c #BBAAAA",
"_. c #BBA7B1",
"`. c #BAB5B3",
"'. c #AEB4A6",
"]. c #99A98F",
"[. c #C5AD83",
"{. c #CBB782",
"}. c #D6B888",
"|. c #DFB894",
" X c #E2BA99",
".X c #C2AAA7",
"XX c #C3ABB3",
"oX c #CAB3B4",
"OX c #D4BAB8",
"+X c #CDB6AE",
"@X c #B6CA99",
"#X c #BBD1A3",
"$X c #D4C386",
"%X c #EACC97",
"&X c #F2CA9B",
"*X c #EAD297",
"=X c #F1D79C",
"-X c #DDC0BC",
";X c #C6CDB4",
":X c #F3CAA3",
">X c #FDD6A5",
",X c #FDD6AC",
"<X c #FEDAAC",
"1X c #F7D4A4",
"2X c #FFDCB0",
"3X c #E4C4B9",
"4X c #FFE1B2",
"5X c #BABAC0",
"6X c #D8BAC5",
"7X c #E0BECE",
"8X c #D6DDC8",
"9X c #D6D1CE",
"0X c #EBCECD",
"qX c #E5CAC8",
"wX c #ECCED3",
"eX c #E8C6D4",
"rX c #F1CFD4",
"tX c #EDD1D3",
"yX c #EAD5D5",
"uX c #F2D3D3",
"iX c #FCDBD5",
"pX c #F4D4DB",
"aX c #FCD6DB",
"sX c #F6DBDC",
"dX c #FEDCDD",
"fX c #F8D8D7",
"gX c #EFD1CF",
"hX c #DAE1CE",
"jX c #FFE1DD",
"kX c #FFE1D7",
"lX c #E4E6DE",
"zX c #FFDDE1",
"xX c #FFDDEA",
"cX c #FBDAE1",
"vX c #FFE1E4",
"bX c #FCE5E9",
"nX c #F9E8F4",
"mX c #FDFEFD",
"MX c #F9F9F3",
"NX c #ECEEEB",
/* pixels */
"zXdXvXvXaXdXdXsXzXzXzXzXzXzXzXaXzXzXcXzXdXjXdXcXzXzXzXzXzXcXzXdXzXdXzXxXdXdXvXzXzXjXjXvXxXsXzXdXzXzX",
"vXdXdXzXvXdXdXvXdXiXtXtXpXpXeXyXtXpXuXuXtXyXtXpXtXtXtXtXwXwXwXtXtXyXyXwXtXgXeXyXcXaXdXvXzXzXvXdXzXdX",
"dXvXdXzXbXcXaXcXvXgX.Xn.` ` ) ` ) ) _ ` ` I.P P P _ P _ P P P P P P P P _ I I Q.wXzXzXdXdXzXvXzXzXdX",
"sXdXzXzXvXxXzXzXzX+XL ; - ; ; : ; : : : : ; * : * * * * * * * * - * * * * O & G +XzXbXaXzXzXdXzXzXzX",
"vXdXzXzXaXaXvXyXoXY.a w d g k x k k j k g k x c M v n c c n n b c M J v b m m J M.oXeXsXzXzXaXxXzXzX",
"vXvXcXzXaXvXkX/.Y e , ; x o.O.+.#.o.+.o.o.#.6.q.r.q.q.0.1.r.r.r.r.r.q.1.r.i.u.:.J K Q.tXzXzXdXzXdXzX",
"aXzXzXzXdXiX-Xn.3 6 O u M 6.4.2.<.0.y.7.<.q.s.c.c.G.J.G.G.J.l.l.c.c.d.c.l.J.K.s.X.& I 0XzXzXdXzXzXzX",
"zXvXdXsX9X/.n.] R E < ; %.6.2.=.{ >.y.0.*.} >.s.f.f.G.K.K.J.d.u.r.j.u.d.a.G.K.s.@.O I qXxXzXdXvXzXzX",
"zXdXdXvX_.Y 3 R ~ Q 1 q %.$.$...*.-.k.$.>.| ..e.k.s.l.c.G.i.r.e.-.q.7.;.0.d.c.t.b * I.tXdXzXzXzXzXdX",
"cXdXdXzX'.Z 2 / ( W 1 - y ..B.@X~.B.%.$.!.~.!.w.2.d.l.s.w.w.q.e.w.w.w.q.<.1.w.6.g : I.qXdXvXxXzXzXzX",
"cXdXjXcX).Z 3 / ~ W 7 q y | L.hXlX'.J m.9XlX;X8.5.z.i.O.g v ;.d.j.s.s.G.i.$.j w 8 a R.gXvXvXdXzXvXzX",
"vXvXcXzX).H 3 R W W 7 - y | @XMXmX5X: &.NXMX8XB.{ a.i.@.w g <.K.G.H.a.G.d.o.p X + 5 R.uXzXdXzXzXzXzX",
"dXdXvXzX).H i f E E @ 9 y | @XMXmX`.  U NXmX9XN.{ i.z.1.X.$.s.f.l.c.f.K.l.r.#.c p : ` gXzXzXxXzXzXdX",
"vXaXvXzX_.H 2 @ < @ . , y | ;XNXMX`.X &.lXmX8XN.{ 4.l.l.s.j.J.f.f.c.j.f.a.a.d.q.n : ) gXzXzXvXzXzXzX",
"vXzXdXdXOXR.G - % ; 7 f N  .@XNXmXlXE.`.nXmX8XN.{ 4.j.l.G.c.c.G.a.l.f.G.l.K.J.t.v * _ uXzXzXzXcXzXzX",
"sXvXjXdXuXqX/.Y 0 3 R Q T t ].lXmXmXlXMXmXmX8Xh.{ 4.c.l.H.F.j.f.l.l.j.f.z.G.c.t.z * I.wXzXxXzXzXzXzX",
"aXvXdXdXcXvXjXT.9 7 ~ ~ 1 o Y.hXmXmXMXmXmXNX;XN.5.4.J.f.a.G.l.j.l.l.z.a.G.f.d.k.z * I.yXxXcXiXzXzXzX",
"dXdXzXdXjXcXjXT.9 E ! ! T o U `.8X8XhXhX8X;X!.8.>.4.f.f.G.f.G.J.J.c.c.v.K.K.K.w.z * I.tXxXzXjXxXzXzX",
"vXdXzXvXcXdXpXb.9 ^ Q W E < H $.N.N.N.N.N.N.h.8.4.d.c.J.J.f.l.H.F.F.J.J.g.H.G.q.M = ) 0XzXzXdXxXcXzX",
"dXvXzXzXvXvXtXb.q f Q Q E < r N } [ [ [ [ [ | =.q.t.s.d.f.s.t.w.w.1.e.e.k.u.s.6.n = ) rXzXaXdXxXzXzX",
"zXzXzXvXvXcX0Xb.; 3 f 7 6 = g @.2.2.=.=.=.-.;.7.6.w.e.f.f.q.X.p s j z c n M v j w - ` uXzXdXzXzXzXzX",
"dXvXdXzXjXzXwXE.a w q 9 , O g o.;.;.w.7.7.7.e.7.;.,.0.f.G.1.h + X & & & * * * * w a Q.rXzXzXzXzXcXzX",
"zXvXaXzXcXvXiXoXW.T.T.&.Z & p j @.O.7.7.6.+.3.3.r.1.1.3.4.u.+.z u * $ S ` U._ ) ` R.OXrXzXzXzXcXcXzX",
"zXzXzXzXzXdXvXyXgXpXkX3Xb.; ; - s M ;.<.+.e.k.g.g.4.4.F.p.p.p.3.@.e V ^.aXcXwXuXuXuXiXaXxXzXcXxXxXzX",
"zXzXzXzXzXzXzXzXzXzXbXxXoX) D   @ c ;.t.x.x.A.P.L.P.P.L.L.P.P.P.x.s 4 XXcXcXcXcXxXcXzXzXcXcXzXzXzXzX",
"zXzXzXzXzXzXdXzXiXdXdXzXkX3XW.B w v ;.x.A.{.$X*X*X=X*X*X%X%X=X%XZ.s 4 (.cXcXzXzXzXzXzXzXzXzXzXzXcXzX",
"zXdXzXdXzXdXzXzXcXaXgXrXjXvX/.C w z -.x.S. X:X,X<X<X<X<X,X<X<X1XS.F 4 ^.zXzXxXzXzXzXzXzXzXzXzXzXzXzX",
"dXzXzXzXzXvXzXzXzXqX/.n.R.U.K > + h ;.V.[. X&X>X<X<X<X<X<X<X<X=X[.s 4 /.zXzXzXzXzXzXzXzXzXzXzXzXzXzX",
"dXzXzXdXdXzXzXzXiX+XL ; - * #   w h O.V.S. X&X>X<X>X>X>X>X<X<X=XS.F 4 (.dXzXvXdXzXzXzXzXzXzXzXdXzXzX",
"zXdXzXzXzXzXzXzXdX_.D u k m m j h @.+.V.~.|.:X<X<X<X<X<X,X<X<X>X[.F 4 /.dXvXzXdXzXzXzXzXzXzXdXzXzXcX",
"zXdXzXzXzXzXzXdXbX_.V w o.1.i.4.w.1.,.x.[.%X:X1X<X<X<X<X<X<X4X1X[.F 4 /.dXzXzXdXzXzXzXzXzXzXdXzXzXaX",
"zXzXzXzXdXvXzXzXiX(.V p O.i.K.c.l.u.,.h.Z.}.&X>X>X>X>X<X>X<X<X&XZ.F 4 /.aXzXcXvXzXzXzXzXzXzXzXzXzXzX",
"zXzXzXdXzXzXzXdXvXXXD 8 z +.0.u.u.q.0.y.V.W.{.$X%X&X&X:X%X%X%X{.h.s V .XiXdXdXvXzXzXzXzXzXzXzXzXzXzX",
"zXzXzXzXdXzXzXzXjX/.G ; ; w n :.w.q.0.0.y.t.d.G.C.D.|. X X}.L.j.:.i V (.dXvXvXdXzXzXdXvXzXzXdXvXdXzX",
"dXzXzXdXzXzXzXzXjXOXW.S #   e c 9.:.;.,.-.<.3.3.v.C.{.}.{.C.l.3.+.i V XXdXxXzXdXzXzXzXzXdXzXzXzXdXzX",
"zXzXzXzXdXzXzXzXdXsXqX/.G = i e g X.7.y.s.i.a.f.v.K.C.C.C.v.c.p.@.i V _.dXxXdXzXzXzXzXzXvXzXzXzXzXzX",
"zXzXzXzXdXzXzXdXzXzXzXsXW.s O   8 c ;.s.j.z.c.v.j.j.g.g.p.F.c.v.+.p V _.cXxXzXdXdXvXzXzXzXdXzXzXzXdX",
"dXzXzXdXzXzXzXzXzXdXzXzXOXQ.K $ ; c :.t.f.F.r.+.X.X.o.,.1.f.K.f.e.p B ^.zXxXdXzXzXzXzXzXzXzXzXvXzXdX",
"zXzXzXzXzXzXzXdXvXdXdXxXxXcX(.C w M ;.s.J.a.$.l 8 + p X.O.r.K.f.$.p V ^.jXzXdXvXzXzXzXzXzXzXzXdXzXzX",
"dXzXzXzXdXzXzXzXxXiXzXzXzXdXXXD i X.;.q.r.y.9.A B . O n 6.q.u.,.#.J I 6XdXzXzXzXzXzXdXvXzXzXzXzXzXzX",
"zXzXzXzXzXdXdXzXcXzXdXdXdXzXXXV u #.e.e.$.g n.).U.: w b 7.q.o.k n..XOXuXzXdXvXzXdXdXdXzXzXzXdXzXaXzX",
"zXzXzXzXzXzXzXzXzXvXzXdXdXzXXXD w X.;.$.d & R.vX6XS i X.0.O.d & n.uXvXpXvXaXaXvXzXzXdXzXdXzXzXzXzXzX",
"zXdXzXzXdXzXzXdXdXvXzXzXdXsX.XF w c z M L R.6XiXqXS w j b M L E.+XjXbXdXzXzXzXcXzXdXzXzXzXdXzXzXdXzX",
"zXzXzXzXdXzXzXdXdXzXzXzXzXdX.XG ; i d F .XkXvXjXXXG i u p G ).fXxXsXcXzXzXdXvXcXzXzXzXzXzXzXzXzXzXdX",
"zXzXzXzXdXzXzXzXvXzXzXzXzXdXOXn.G D V ) 6XzXpXvX6Xn.A a V _ 6XjXcXzXzXzXzXzXzXzXzXdXzXzXzXzXzXzXzXzX",
"zXzXzXzXzXzXdXzXdXzXzXcXdXdXtX-X.X(..X6XpXzXbXzXtXOX+X)./.OXcXzXzXvXzXaXvXvXaXzXzXzXzXvXzXdXdXzXzXzX",
"vXzXzXdXzXdXzXzXzXdXvXzXaXzXjXdXjXdXdXvXzXcXzXfXnXsXbXxXjXiXdXdXzXaXzXvXdXaXzXvXvXzXzXdXzXzXzXzXdXdX",
"dXzXzXzXzXdXzXzXzXdXzXdXdXzXzXzXzXxXxXzXvXjXaXzXcXkXjXcXzXxXxXaXvXzXzXdXzXzXzXzXzXdXzXzXzXzXzXdXzXzX",
"zXzXdXzXzXzXzXzXzXzXzXdXzXzXzXzXzXzXzXzXzXzXzXzXzXzXzXcXzXxXxXzXzXzXzXzXdXdXzXzXzXzXzXzXdXzXdXzXzXdX",
"zXdXvXzXdXzXzXzXdXzXvXzXzXzXzXzXzXzXzXzXxXzXzXzXzXxXzXzXzXzXzXzXzXdXdXzXzXzXzXdXzXzXzXzXdXzXzXzXzXzX"
};
