/* XPM */
static char *cb1d790fc4b346d6a00674c2408633c3OUWiRsGNe6yFDeBJ[] = {
/* columns rows colors chars-per-pixel */
"50 50 131 2 ",
"   c black",
".  c #0B0000",
"X  c #140102",
"o  c #1C0000",
"O  c #170D00",
"+  c #1C0C00",
"@  c #1C1303",
"#  c #1B130B",
"$  c #1D1710",
"%  c #210100",
"&  c #210B00",
"*  c #241600",
"=  c #251C00",
"-  c #281D00",
";  c #261D0A",
":  c #281E0E",
">  c #261F10",
",  c #2B2100",
"<  c #26210D",
"1  c #2A220C",
"2  c #31240D",
"3  c #32290F",
"4  c #262113",
"5  c #292313",
"6  c #27231C",
"7  c #2A231B",
"8  c #2A2623",
"9  c #2B2926",
"0  c #2D2B2B",
"q  c #312F2C",
"w  c #31312E",
"e  c #2F3134",
"r  c #313235",
"t  c #34363A",
"y  c #36393E",
"u  c #3A3C3D",
"i  c #353B42",
"p  c #393B43",
"a  c #383F4D",
"s  c #39404C",
"d  c #3A4353",
"f  c #3C475B",
"g  c #3E4B60",
"h  c #434242",
"j  c #444648",
"k  c #494B4D",
"l  c #414C5D",
"z  c #4C5050",
"x  c #424D64",
"c  c #44536A",
"v  c #4A566E",
"b  c #495773",
"n  c #4B5973",
"m  c #465A7C",
"M  c #4D5D7A",
"N  c #505F7D",
"B  c #5C646B",
"V  c #6B757C",
"C  c #4B5D81",
"Z  c #4E648A",
"A  c #516284",
"S  c #5B6B81",
"D  c #53668A",
"F  c #54698C",
"G  c #5D7189",
"H  c #566C93",
"J  c #596D93",
"K  c #5A729D",
"L  c #647087",
"P  c #727C84",
"I  c #667792",
"U  c #6C7C92",
"Y  c #5C76A4",
"T  c #6077A4",
"R  c #637DAB",
"E  c #607EB1",
"W  c #7A838A",
"Q  c #7C8891",
"!  c #6482B5",
"~  c #6585BA",
"^  c #6D8FC7",
"/  c #6B8FCB",
"(  c #6C90CA",
")  c #7296D5",
"_  c #749BDA",
"`  c #77A1E4",
"'  c #7AA2E6",
"]  c #77A5ED",
"[  c #7CA6ED",
"{  c #7CA6EF",
"}  c #7CA7EF",
"|  c #7CA8ED",
" . c #7DA8ED",
".. c #7DA8EF",
"X. c #77A3F3",
"o. c #7AA3F0",
"O. c #79A7F0",
"+. c #7BA6F0",
"@. c #7CA7F0",
"#. c #7AA9F1",
"$. c #7DA8F1",
"%. c #7BA9F4",
"&. c #7DA8F5",
"*. c #7EABF7",
"=. c #7DADF7",
"-. c #7FABF9",
";. c #7FADF9",
":. c #7EACFA",
">. c #868E92",
",. c #899298",
"<. c #97A0A4",
"1. c #9AA4A6",
"2. c #A4B3B5",
"3. c #B1BEC6",
"4. c #81A9ED",
"5. c #80AAF2",
"6. c #80AAF4",
"7. c #80ADFA",
"8. c #B5C2CA",
"9. c #BCCACE",
"0. c #ADC3D6",
"q. c #ABC4D9",
"w. c #B2C7D8",
"e. c #B2CADB",
"r. c #BFD0D3",
"t. c #BBD0E6",
"y. c #C5D8E4",
"u. c #C7DBE7",
"i. c #C3DAED",
"p. c #CCE6F9",
"a. c #E2FAFF",
/* pixels */
"+.+.+.+.+.+.+.+.+.@.@.+.+.+.+.+.{ { +.+.+.+.#.+.+.+.+.+.+.+.+.+.+.+.+.{ +.+.{ +.+.+.+.{ +.#.{ +.+.+.",
"+.+.@.@.{ +.+.+.+.+.+.+.{ +.+.+.{ { +.+.+.+.{ { ..+.{ +.+.+.+.{ +.{ +.+.+.+.+.+.+.+.+.+.+.+.+.+.#.+.",
"+.+.+.+.+.+.+.+.+.+.+.+.+.#.{ { +.{ +.+.+.+.+.+.+.+.+.{ +.+.+.+.+.#.+.+.+.{ +.+.+.+.{ +.{ +.+.+.+.+.",
"+.+.+.+.+.$.+.+.+.@.+.+.+.+.+.+.{ { #.+.+.+.{ +.+.+.+.#.+.{ #.{ +.+.+.{ +.#.+.{ #.+.+.+.#.{ +.+.+.+.",
"+.+.+.+.+.+.@.+.+.+.+.+.+.+.+.+.+.+.+.+.+.+.+.+.+.+.{ $.+.+.@.+.+.{ +.#.+.{ +.+.{ +.+.+.| +.+.+.+.+.",
"{ { #.+.+.+.$.+.+.+.+.$.{ +.+.+.+.{ +.+.{ +.+.+.+.+.+.+.+.+.+.{ { +.{ +.{ +.{ { +.+.+.+.+.+.+.+.+.+.",
"{ +.+.+.+.+.{ { +.+.+.+.{ #.+.{ +.+.+.+.+.{ +.+.+.+.+.+.+.+.+.{ ..+.+.+.+.+.{ { +.+.+.+.+.#.+.{ +.+.",
"+.+.+.+.+.+.+.+.{ { #.{ +.{ +.+.{ { #.{ #.{ +.+.{ #.+.+.+.+.+.+.+.+.+.+.+.{ +.+.{ +.+.+.+.+.+.+.+.@.",
"+.+.+.#.{ +.+.+.+.+.+.+.+.+.+.{ +.{ +.+.{ +.+.+.{ +.#.{ +.+.{ +.#.{ { +.+.+.{ +.+.+.+.{ +.@.+.+.+.@.",
"+.+.+.{ #.+.+.+.+.+.+.+.+.+.+.#.+.+.+.{ +.{ #.+.+.+.{ +.+.+.+.+.+.{ +.+.+.+.#.+.+.+.+.{ +.@.+.+.+.+.",
"+.+.+.$.+.+.{ +.+.{ +.{ { ..+.+.+.+.+.+.+.+.+.+.+.{ { +.+.+.+.+.+.{ +.+.+.+.+.+.+.+.+.#.+.+.{ +.+.+.",
"+.+.{ { { +.+.{ #.+.+.+.{ +.+.+.+.+.+.+.+.+.{ +.@.+.+.+.+.+.+.+.+.{ #.{ +.+.+.+.+.+.+.+.+.{ #.+.{ @.",
"+.+.+.+.{ { +.#.{ +.+.+.+.+.+.+.+.+.+.{ #.{ +.+.+.+.{ { +.{ +.+.+.+.+.+.+.+.+.+.+.+.+.+.@.{ +.+.+.+.",
"#.+.+.+.+.+.{ +.+.+.+.+.{ #.+.+.+.+.+.+.+.+.+.+.+.{ +.#.+.$.{ +.+.+.+.+.#.{ +.+.+.$.+.+.+.+.+.+.+.+.",
"{ +.+.+.{ +.+.+.+.+.+.+.{ +.#.+.+.+.+.+.{ +.+.+.+.+.+.+.+.+.+.+.+.+.{ { { { +.+.{ #.+.+.+.+.+.+.+.+.",
"+.{ #.{ +.+.+.+.+.+.+.+.+.+.{ +.#.+.+.+.+.{ { +.+.+.+.+.+.{ ..+.+.+.+.#.{ { +.{ { { +.+.+.{ $.+.+.+.",
"+.+.+.+.+.+.{ { { { +.+.+.+.{ +.{ { +.#.+.{ { #.{ +.+.+.#.{ { +.{ +.+.+.+.+.+.+.+.+.+.+.+.+.+.+.+.+.",
"+.+.+.{ +.+.+.#.{ +.+.{ +.+.+.+.+.{ +.{ +.+.+.{ +.+.+.+.{ +.+.+.+.+.+.+.+.+.+.@.+.+.+.+.+.{ +.+.{ +.",
"#.{ +.+.+.+.+.+.+.#.+.+.+.+.{ +.+.@.+.+.+.+.+.+.+.+.{ +.+.+.+.#.+.+.{ #.+.+.+.@.+.+.@.+.+.#.+.{ +.+.",
"+.@.+.+.+.+.+.+.{ { $.+.+.+.#.+.+.+.+.+.+.{ +.{ +.+.+.+.+.+.+.{ +.+.+.+.+.+.+.+.+.@.@.+.+.+.{ $.#.+.",
"{ { +.+.+.+.+.+.+.+.+.+.+.+.+.+.+.+.+.+.+.@.#.{ +.+.+.+.+.+.+.+.+.+.+.+.+.{ +.+.+.+.+.$.+.+.+.+.{ +.",
"{ { #.+.+.+.+.+.+.+.+.+.+.{ +.+.+.+.+.+.+.+.+.+.#.+.{ +.+.+.+.+.+.+.+.+.+.$.+.+.+.+.+.+.+.+.+.+.{ +.",
"+.+.{ { +.{ #.+.+.{ { +.+.+.+.{ +.+.+.+.+.+.+.+.{ +.+.+.{ +.+.+.+.+.+.{ +.+.{ { +.+.+.+.+.+.+.+.+.+.",
"+.+.+.+.+.+.{ +.+.+.+.+.{ #.+.{ +.+.+.+.{ { +.{ { +.{ #.+.+.{ +.+.+.{ { #.+.{ { +.+.+.+.+.+.+.+.+.+.",
"+.+.+.+.+.#.{ +.{ { ] { +.+...| +.+.{ { +.+.+.{ { +.+.+.+.{ +.{ { { { { { { { { +.+.+.{ +.+.+.+.+.+.",
"+.+.+.{ +.+.{ { { +.#.{ { { { ] { { +.{ { { +.+.+.+.+.+.{ { { +.{ { { ] { { ] { #...+.+.{ +.+.+.| { ",
"+.+.+.#.{ { +.+.{ { o.@.] { { { +.o.] { { { { +.+.+.+.{ { $.+.] ] { +.] { { { ] +.] #.{ +.+.+.+.+.{ ",
"+.+.+.+.+.#.{ { +.+.-.=.{ ] { ] { =.;.#.] { +.+.+.+.{ #.{ ] +.=.=.#.] { ] ..=.=.#.o.{ { +.{ +.+.+.+.",
"+.+.{ { +.{ { #.&._ E D c l f x c H E _ *.{ { +.@.{ @.{ $.=._ ! F v g f g c D E _ =.*.{ +.+.+.+.+.+.",
"#.{ +.] { ] $.] K t - * - - = = = * < p R @.@.+.@.{ { { | Y i - @ * , , = = * = i J { { ] +.{ +.+.+.",
"+.+.{ { { $.{ M + 7 9 0 0 0 8 0 0 0 0 6 + D @.o.+.+.{ =.D % 7 0 9 0 0 9 0 0 9 0 7 % M { +.{ +.{ +.+.",
"{ { { { { 5.! 4 0 0 9 0 9 9 q q 9 9 9 0 9 7 / -.] ] 7.( 5 9 0 9 0 9 9 w 0 9 0 0 0 9 < ! =.{ +.+.+.+.",
"{ { +.{ ] =.! = 8 e 0 0 @ j >.h # r 0 e 8 > / $.{ ' -./ : 8 r 8 q $ u >.z O w 0 r 9 = ! ;.{ +.+.+.+.",
"+.+.{ +.{ +.' n o > 0 t   W y.B X t 0 ; & A 4.+.{ { ] { A & ; 0 y   V y.V . r 0 4 o b ' $.{ +.+.+.+.",
"+.{ +.#.+.{ #.` H t = o 1 9.a.<.* o , i Y ] *.o.+.+.] #.' K p 1 X & 3.a.1.2 o - t J ` =.{ +.+.+.+.+.",
"+.{ { #.+.+.{ #.#.) R m U i.p.0.S C ! ) 4.+.] [ +.{ { +.*.5.) E C L y.p.w.L C R ) $.%.{ { +.+.+.+.+.",
"+.+.{ +.+.+.{ { +.6.5.{ { ..4. .{ { =.=.] { { { +.{ +.#.] ] 4.*.+.{ 4.4.{ ' ..=.%.{ ] +.{ +.+.+.+.+.",
"+.+.+.+.{ { { { $.] { { { { ] { +.+.] ' { +.{ { +.{ { +.{ o.] ] +.+.*.X.X.&.{ { +.{ +.+.+.{ +.+.+.+.",
"+.{ +.+.+.+.+.{ { $.7.{ [ [ ] ] +.=.-.@.{ ] { #.+.+.{ +.{ { =.7.=.] ' ' { { { 6.%.+.{ +.+.+.{ +.#.{ ",
"+.+.#.+.+.{ ] #.-.) T A x d a d g Z R _ =.{ { +.+.{ +.{ +.*._ E A x d a d l m E ) =.#.] { +.+.{ +.+.",
"+.+.@.{ @.{ 6.' H 0 * * = < 5 < - * = r K { $.{ @.+.{ @.' Y r = * ; < 5 4 ; * * 0 H ' +.{ { { ] { +.",
"+.{ +.{ ] @.' v o 9 0 0 0 0 9 0 0 0 0 8 o A { +.@.{ { $.A o 7 0 0 0 0 8 0 0 0 0 8 o n { { { +.+.+.+.",
"+.+.{ @.] 5.E 4 0 0 9 0 9 9 w 0 9 9 9 0 0 7 / 7.] ] 6./ 5 0 0 8 0 9 9 r 0 8 0 9 w 0 4 ! 7.] +.+.+.+.",
"+.{ { { ] 7.! = 9 r 0 q O k ,.h # q 0 r 7 7 ( ;.] ] =.^ 7 9 r 0 w # h ,.z + 0 0 r 9 = ~ 6.] +.+.+.+.",
"+.+.+.+.] +.' N o : 0 r   Q i.B X i 0 ; @ F { +.{ [ o.+.F & = q y   P y.V X r 0 > % M ] *.] { { +.+.",
"+.{ +.+.{ { =.] Y p , X 3 r.a.1.= o 1 s T { #.] { { { =.] Y s 5 . * 8.a.2.2 o , p K ] $.{ { { o.+.+.",
"+.+.+.{ { +.{ +.#._ ~ Z U i.p.q.G F ! _ 5.@.{ { { +.{ ] #.$._ ~ Z I t.p.e.I D ! _ =.+.{ @.+.+.+.+.+.",
"+.+.+.{ +.+.{ { { =.;.$.4.......{ @.-.=.{ { +.{ { +.[ { { { =.%.=.$...4.@...{ =.=.{ { @.+.+.+.+.+.+.",
"+.+.{ +.+.{ #.{ { ] { +.+.+.] +.+.+.{ { { +.+.+.+.+.{ #.{ { { { @.+.o.+.X.+.+.{ { { { +.+.+.+.+.+.+.",
"+.+.#.+.{ +.+.{ +.+.{ { +.+.+.+.+.+.+.+.+.+.{ +.+.+.{ +.+.+.+.{ { +.{ $.{ { { { #.{ { ] +.+.+.+.+.+."
};
