/* XPM */
static char *_154c9de22cf4141a2768b9d7b3989db6Fo6ukrD1UPC4OWo[] = {
/* columns rows colors chars-per-pixel */
"50 50 160 2 ",
"   c #010000",
".  c #0C0000",
"X  c #130200",
"o  c #1D0A00",
"O  c #1C1200",
"+  c #1F160A",
"@  c #171210",
"#  c #1D1313",
"$  c #210300",
"%  c #230D00",
"&  c #291D00",
"*  c #241B0B",
"=  c #221B13",
"-  c #211619",
";  c #211D19",
":  c #27220F",
">  c #2C230C",
",  c #2A2414",
"<  c #2B241C",
"1  c #262322",
"2  c #2B2625",
"3  c #2C262E",
"4  c #2F2E2D",
"5  c #312D2A",
"6  c #313128",
"7  c #313232",
"8  c #3B3B3E",
"9  c #393942",
"0  c #3F4142",
"q  c #494C4F",
"w  c #4F5459",
"e  c #565A5A",
"r  c #48536D",
"t  c #4D5E77",
"y  c #4C5B7D",
"u  c #505D7D",
"i  c #5C6466",
"p  c #616869",
"a  c #6A7273",
"s  c #737977",
"d  c #70767B",
"f  c #526382",
"g  c #54678A",
"h  c #4C6390",
"j  c #506791",
"k  c #576C91",
"l  c #586D92",
"z  c #597299",
"x  c #5A729C",
"c  c #617497",
"v  c #657895",
"b  c #657D9D",
"n  c #5773A4",
"m  c #5A73A3",
"M  c #5E78A5",
"N  c #5E7AAB",
"B  c #627DB1",
"V  c #778185",
"C  c #7C8687",
"Z  c #6D8099",
"A  c #7386A9",
"S  c #7D91AE",
"D  c #6483B5",
"F  c #6585BA",
"G  c #6B8FCB",
"H  c #6E91C6",
"J  c #7596D5",
"K  c #7399D7",
"L  c #769CDC",
"P  c #799FDF",
"I  c #6F9FEF",
"U  c #729FEC",
"Y  c #7AA2E5",
"T  c #75A2EE",
"R  c #7BA6EE",
"E  c #7CA9EF",
"W  c #75A3F2",
"Q  c #7BA6F0",
"!  c #7CA9F3",
"~  c #7EACF9",
"^  c #838B8C",
"/  c #899499",
"(  c #919A9B",
")  c #8C99A4",
"_  c #879CB1",
"`  c #97A4A6",
"'  c #93A3AC",
"]  c #9CADB4",
"[  c #A2B0B5",
"{  c #A3B4BB",
"}  c #9AB6CD",
"|  c #8FACD6",
" . c #85A6DF",
".. c #89AADE",
"X. c #94AFD2",
"o. c #92B2D3",
"O. c #9FB7D1",
"+. c #93B0D9",
"@. c #A9B7C3",
"#. c #A6B9C3",
"$. c #A4B7C8",
"%. c #AABEC8",
"&. c #B1BDC3",
"*. c #A4B9D0",
"=. c #82A7E3",
"-. c #83A9E7",
";. c #84ACEB",
":. c #9DBCE6",
">. c #95BAED",
",. c #9DBDE9",
"<. c #80AAF2",
"1. c #80ACFA",
"2. c #8CB3F2",
"3. c #9ABDF3",
"4. c #A4BFE7",
"5. c #ADC2C9",
"6. c #AEC6D4",
"7. c #B0C5D1",
"8. c #B5CBD5",
"9. c #B8CBD6",
"0. c #B4CBD9",
"q. c #BACDDA",
"w. c #BFD2DD",
"e. c #AFCCE7",
"r. c #A4C0E9",
"t. c #AECCEB",
"y. c #B4CFEA",
"u. c #B7D0E6",
"i. c #B6D0EB",
"p. c #BCD6E9",
"a. c #B7D4F0",
"s. c #BCDAF6",
"d. c #B6D7F9",
"f. c #C3D5DC",
"g. c #C8DDDE",
"h. c #C5D9E4",
"j. c #C7DCE9",
"k. c #CADFEE",
"l. c #C1DFF7",
"z. c #CDE1E6",
"x. c #CCE2ED",
"c. c #D2E5ED",
"v. c #D6E9E9",
"b. c #C5E0F4",
"n. c #CDE5F3",
"m. c #CEE8F5",
"M. c #CAE6FA",
"N. c #D1E6F3",
"B. c #D2E9F5",
"V. c #D3EAF4",
"C. c #D6ECF7",
"Z. c #D9EEF5",
"A. c #DAEEF7",
"S. c #D6E7FB",
"D. c #D6EBF9",
"F. c #D5ECFA",
"G. c #D9EEF9",
"H. c #DAF1F6",
"J. c #DBF2FD",
"K. c #DCF2FC",
/* pixels */
"Q Q Q Q Q Q Q Q Q Q E Q Q R Q Q Q Q Q Q Q Q Q Q Q Q Q R Q Q Q Q Q Q Q Q Q Q Q Q Q Q Q Q Q Q Q Q Q Q ",
"Q Q Q Q Q Q Q Q Q Q Q Q Q Q Q R R Q Q Q Q Q E Q Q E Q Q Q Q Q Q Q Q E Q Q Q Q Q Q R Q Q Q Q Q Q R Q ",
"Q Q Q R Q Q Q Q Q Q Q Q R Q Q Q R Q R Q Q Q Q E Q Q Q R Q R R Q Q Q Q Q Q Q Q R Q Q <.R R Q Q Q Q Q ",
"Q Q Q Q Q R Q R Q Q Q Q Q Q Q Q Q Q Q Q Q Q Q Q Q Q Q E Q Q R Q Q Q Q Q Q Q Q Q Q Q Q Q R Q Q Q Q Q ",
"Q Q Q Q Q Q Q Q Q Q Q Q Q Q Q Q Q Q Q E Q Q E Q Q Q Q Q Q Q Q E Q Q Q Q Q Q Q Q Q Q Q Q Q Q Q Q Q Q ",
"Q Q Q Q Q Q Q Q Q Q Q Q Q Q Q Q Q Q Q Q Q Q Q Q Q Q Q Q Q Q Q Q Q Q Q Q R Q Q R Q Q E Q Q Q Q Q Q Q ",
"Q Q Q Q Q R Q Q R Q Q Q Q Q Q Q Q Q Q Q Q Q Q Q Q R Q Q Q Q Q Q Q Q Q Q R Q R Q Q Q R R Q Q R Q Q Q ",
"R Q Q Q Q Q Q Q Q Q Q Q Q Q Q R Q Q Q Q Q Q Q Q Q Q Q Q Q Q Q Q Q R Q Q Q Q <.Q Q Q Q R Q Q R Q R Q ",
"Q Q Q Q Q Q Q Q Q Q Q Q Q Q Q Q Q Q Q Q Q Q Q Q Q Q Q Q Q Q Q Q Q Q Q Q Q Q Q Q Q Q Q Q Q Q Q Q Q Q ",
"Q Q Q Q Q Q Q Q Q Q Q Q Q Q R Q Q Q Q Q Q Q E Q Q Q R Q Q Q Q Q Q Q Q R Q Q Q Q Q Q Q Q Q Q R Q Q Q ",
"Q Q Q Q Q R Q Q Q Q R R Q R Q Q Q Q Q Q Q Q Q Q R Q Q Q Q Q Q Q Q Q R Q Q R Q Q R R Q Q Q R R Q Q Q ",
"Q Q Q Q R Q Q Q Q Q R Q Q Q Q Q Q Q Q R Q Q Q Q Q Q Q Q Q Q Q Q Q Q Q Q Q Q Q Q R E Q Q R Q Q Q Q Q ",
"Q Q Q Q Q R Q Q Q R Q Q R Q Q Q Q Q Q Q Q Q E Q Q Q Q Q Q Q Q Q Q Q Q R Q Q Q Q Q Q R Q Q Q Q Q Q Q ",
"Q Q Q Q E Q Q Q Q Q Q Q Q Q Q Q R Q Q Q Q Q Q Q R R Q R Q Q Q R Q R E Q Q Q Q Q Q Q Q Q Q Q Q Q R Q ",
"Q Q Q R Q Q Q Q Q Q Q Q Q Q R Q Q R Q Q Q Q Q Q Q Q Q Q Q Q Q Q Q Q Q Q Q Q Q Q Q Q Q Q Q Q Q Q Q Q ",
"Q Q R Q Q Q Q Q Q Q Q Q Q Q Q Q Q Q Q R Q Q Q Q R Q Q Q Q Q Q Q Q Q Q R Q Q Q Q Q R <.Q Q Q Q Q Q Q ",
"Q Q Q R Q Q Q Q Q Q Q Q R Q Q Q Q Q Q Q Q Q Q Q R Q Q Q Q Q R Q Q Q Q Q Q Q Q Q Q Q Q Q Q Q Q Q Q Q ",
"Q Q Q Q Q Q Q Q Q R Q Q Q Q Q Q Q R Q Q Q R Q Q Q Q Q Q Q Q Q Q Q Q R Q Q Q Q Q Q E Q Q R Q Q Q Q Q ",
"Q Q Q R Q Q Q Q Q Q Q Q Q Q Q Q Q Q Q Q Q Q Q Q R Q Q Q Q Q Q Q Q Q Q Q Q Q Q Q Q R Q Q Q Q Q Q R Q ",
"Q Q Q Q R Q Q Q Q Q R Q Q Q Q Q Q Q Q Q Q Q Q Q Q Q Q Q Q Q Q Q Q Q Q Q Q Q Q R Q Q Q Q Q Q R R Q Q ",
"Q Q R Q Q Q Q Q Q Q Q Q Q Q R Q Q R Q Q Q Q Q Q Q R Q Q Q Q Q R Q Q R Q Q Q Q Q Q Q Q Q Q Q Q <.Q Q ",
"Q Q R E Q Q Q Q Q Q R R Q E Q Q Q Q Q Q Q Q Q R Q Q Q Q R Q Q Q R Q Q Q E R Q Q Q Q Q Q Q Q Q Q Q R ",
"Q Q Q Q Q Q Q Q Q Q Q E Q E Q R Q Q Q Q Q Q Q Q Q Q Q Q Q Q Q Q E Q Q Y R Q Q Q Q Q Q Q Q Q Q Q Q Q ",
"Q R Q Q Q Q Q Q Q Q Q R Q Q ..Y Q R Q Q Q R Q Q Q Q R Q Q R Q R Q Q E  .E Q E Q Q Q Q Q Q R Q Q Q Q ",
"Q Q Q Q Q Q Q Q R R R E T 3.8.=.Q E R Q Q R Q Q Q Q Q Q Q Q Q Q <.U >.0.=.Q Q E R Q Q Q Q Q Q Q R E ",
"Q Q Q Q E Q R E R Q Q R W s.v.+.T Q Q R R E Q Q Q Q Q Q R Q Q Q R U d.v.X.R R Q Q Q Q Q Q Q Q Q Q Q ",
"Q Q Q E Q R R Q R E R W 2.B.A.6.=.Q R R E Q Q Q Q Q E E Q R R R I 2.n.G.7.=.Q U R Q Q Q Q Q Q Q Q Q ",
"Q Q Q Q Q Q Q R E ! ~ W a.A.F.g.| W ~ Q R R Q Q Q Q R Q R R ! ! W t.A.F.z.o.~ 1.Q R R E Q Q Q Q Q Q ",
"Q Q Q Q R Q R R ~ L m A c.B.N.C.%.z B P ~ E R Q Q Q Q Q Q ! U N b x.D.c.D.7.c B L ! ! Q Q Q Q Q Q Q ",
"Q R Q R R R ! R x 9   ` K.n.B.D.j.a X 9 N Q Q Q Q Q R Q R M 8   / J.B.N.C.x.s . 9 z ! Q Y Q Q Q Q R ",
"Q Q Q E E R T y % * 8 h.J.V.B.N.F.] 2 ; % g Q Q Q Q E ! g % * 7 q.J.c.C.B.G.#.6 = $ y R Q E Q Q Q Q ",
"Q Q R E R <.F * 6   / K.m.m.B.m.S.h.i * 4 < G ~ R Y 1.G > 5 . V G.N.N.B.B.D.j.a @ 4 & D ~ T Q Q Q Q ",
"Q Q Q Q R ! B & < 3 f.A.B.H.N.N.N.F.' - 1 , H <.W R ~ H > 1 # 7.J.N.C.C.B.N.G.] 1 1 & F 1.R Q Q Q Q ",
"R E Q Q R ! Y u   ^ J.N.N.N.n.B.N.B.f.e   g R R Q R Q R f   s G.n.B.N.n.N.B.V.h.p . t U Q R Q Q Q Q ",
"Q R Q Q Q Q ! Y h 8.H.A.K.c.8.c.K.G.V.) h <.R R Q R T ! R h #.J.A.J.B.9.x.H.A.C.' h Y Q R Q Q Q Q Q ",
"Q Q Q E Q Q R Q Q ;.r.i.p.n.f.q.p.t.4.=.E ! E E Q R R R ! ! ;.4.y.u.n.f.q.p.i.r.=.! ~ R Q R Q Q Q Q ",
"Q Q Q E Q Q Q R Q W T I Y M.v.O.Y T U ! R R Q R Q Q Q Q R Q U W U Y b.C.*.Y T T W R R Q R Q Q Q Q Q ",
"Q Q R Q Q Q Q Q R E Y W 3.A.C.q.=.Q E Y R Q Q Q Q R R R Q Q <.Q U 3.B.G.w. .Q E R R R W Q Q Q Q Q Q ",
"Q Q Q Q Q Q Q R R ! ~ ! b.A.F.x.} Q 1.! T R E Q R Q Q Q R Y ! ~ R s.H.N.c.$.R ~ Q Q Q Q R Q Q Q Q Q ",
"Q Q Q Q Q R R Q ! K z _ G.B.N.G.9.v N L ! Q Q Q Q Q Q Q Q 1.L n S F.B.n.J.w.Z n J ! ! R Q Q Q Q Q Q ",
"Q Q Q R Q E <.Y l 5   &.K.n.B.V.B.C . 4 n R Q E Q R Q Q Y z 7   [ K.c.N.F.B./ X 7 k Y Q R E Q Q Q Q ",
"Q R Q Q Y ! Y r % X i B.F.B.V.N.B.5.q + % f Q Q Q R Q ! f % o w x.C.N.V.N.F.9.q # $ r R Q E Q Q Q Q ",
"Q Q Q Q Q <.D > 7 X { K.N.V.V.N.B.x.V # 4 , G 1.R T ~ H , 7 . ` K.N.V.N.B.B.N.^ # 6 : D ! R Q Q R Q ",
"Q Q Q Q R ~ F > X w x.D.V.V.V.V.V.D.@.7 ; < H ~ T R ~ H < O 9 h.A.N.V.B.B.B.H.5.8 ; , F 1.R Q R E Q ",
"Q R Q Q E Q R u   ] J.N.N.N.N.N.N.B.k.d . k E R R Q ! Q k   ( K.N.N.n.N.N.N.N.n.C   f R Q R Q Q Q Q ",
"Q R Q Q Q R ! U m w.H.A.A.A.C.A.A.A.F.] x R Q W R Y R ! Y m 0.J.H.J.A.C.A.A.H.H.$.z R ! R Q Q Q Q Q ",
"Q Q Q R Q Q E Q ! -.:.e.u.l.M.k.y.t.:.-.E ! Q Q R R Q Q Q Q -.>.y.u.b.n.b.u.t.,.=.Q Q R R Q Q Q Q Q ",
"Q Q Q R Q Q R R Q T W U R <.<.Q R T I W Q T Q R R Q Q Q R R R T T Y E E E R T T W R R Q Q Q R Q E Q ",
"Q Q Q Q Q Q Q Q R Q Q Q Q W R R Q Q Q R Q Q Q Q Q Q R R Q R Q Q R Q R W R Q Q Q E R Q Q Q Q Q Q Q Q ",
"Q Q Q Q Q Q Q Q Q Q Q R Q Q <.Q R Q Q Q Q Q Q Q Q Q Q Q Q Q Q R R Q Q Q Q E E Q Q Q Q Q Q Q Q Q Q Q "
};
