/* XPM */
static char *_9fe0993370d4f91c5148b5fabe3ee45xoPhkjoTKoGV0rnl[] = {
/* columns rows colors chars-per-pixel */
"50 50 235 2 ",
"   c #096B1E",
".  c #055A29",
"X  c #0B532B",
"o  c #066C24",
"O  c #1A7E2B",
"+  c #056735",
"@  c #0A7632",
"#  c #1B7535",
"$  c #1A6F2E",
"%  c #23623F",
"&  c #5D4D33",
"*  c #645A3D",
"=  c #2A5F41",
"-  c #197649",
";  c #256B45",
":  c #2A7145",
">  c #675E42",
",  c #6A5E43",
"<  c #6D5E49",
"1  c #715844",
"2  c #436A55",
"3  c #6D6347",
"4  c #6E644A",
"5  c #6F684A",
"6  c #6A6648",
"7  c #72664A",
"8  c #746B4E",
"9  c #796B4F",
"0  c #786441",
"q  c #79704F",
"w  c #766D51",
"e  c #796E52",
"r  c #7F695B",
"t  c #777153",
"y  c #7A7154",
"u  c #7D7358",
"i  c #6E6D52",
"p  c #517F65",
"a  c #6B7D6F",
"s  c #84795E",
"d  c #8C795A",
"f  c #877457",
"g  c #937D5C",
"h  c #947759",
"j  c #866C5D",
"k  c #8A7E65",
"l  c #937D67",
"z  c #9A7F74",
"x  c #00992D",
"c  c #089536",
"v  c #19953B",
"b  c #0F862F",
"n  c #2E8139",
"m  c #04A234",
"M  c #1B8448",
"N  c #0A9942",
"B  c #189846",
"V  c #398A49",
"C  c #239449",
"Z  c #32914F",
"A  c #02A843",
"S  c #1DA74D",
"D  c #06B555",
"F  c #1CB758",
"G  c #00BA4A",
"H  c #29A855",
"J  c #35A355",
"K  c #2CB959",
"L  c #34B35B",
"P  c #32B257",
"I  c #2FA74E",
"U  c #37BA62",
"Y  c #23B668",
"T  c #5C8F57",
"R  c #43945A",
"E  c #658852",
"W  c #639F65",
"Q  c #799079",
"!  c #5AA869",
"~  c #45BB67",
"^  c #57B769",
"/  c #56B57B",
"(  c #79A675",
")  c #6FAD75",
"_  c #4AAA53",
"`  c #00C35C",
"'  c #36C75E",
"]  c #13CB66",
"[  c #2CC663",
"{  c #2BCB6A",
"}  c #34C462",
"|  c #3CC464",
" . c #34CD6B",
".. c #3CCC69",
"X. c #36C669",
"o. c #2AD465",
"O. c #2DD36A",
"+. c #25D169",
"@. c #33D36B",
"#. c #39D36B",
"$. c #32D567",
"%. c #3CC776",
"&. c #35D673",
"*. c #45C269",
"=. c #42C472",
"-. c #99855C",
";. c #858C69",
":. c #93856C",
">. c #998667",
",. c #968D71",
"<. c #9B8C73",
"1. c #968974",
"2. c #9A9779",
"3. c #889473",
"4. c #A18B65",
"5. c #A58B79",
"6. c #A38973",
"7. c #A3947C",
"8. c #A5997E",
"9. c #A7937B",
"0. c #A5916C",
"q. c #81AD7B",
"w. c #A6A17E",
"e. c #7B9886",
"r. c #5EB487",
"t. c #79B388",
"y. c #7EAC85",
"u. c #7CC284",
"i. c #9B938A",
"p. c #A99383",
"a. c #A49980",
"s. c #AC9C83",
"d. c #AA9787",
"f. c #B29D8A",
"g. c #B49A86",
"h. c #AE9590",
"j. c #BA9E98",
"k. c #A88C89",
"l. c #91B28B",
"z. c #A5A586",
"x. c #ADA285",
"c. c #ADA88E",
"v. c #ACA389",
"b. c #B1A286",
"n. c #B3A48B",
"m. c #B6A98E",
"M. c #B8A78C",
"N. c #BAA693",
"B. c #B5AB93",
"V. c #BCAC94",
"C. c #BCA49A",
"Z. c #BEAB9B",
"A. c #B6A092",
"S. c #B5B295",
"D. c #BEB396",
"F. c #BEB49A",
"G. c #B9B99A",
"H. c #A2BA92",
"J. c #9BBCA1",
"K. c #BBB7A9",
"L. c #BBA6A1",
"P. c #C59F96",
"I. c #C1A08F",
"U. c #C4AB95",
"Y. c #C2AC9B",
"T. c #C7A998",
"R. c #C1B296",
"E. c #C4B49B",
"W. c #CAB49D",
"Q. c #C6B89D",
"!. c #C8B99E",
"~. c #D1B39D",
"^. c #C5ADA4",
"/. c #C6A9A5",
"(. c #C5B5A1",
"). c #C9B5A3",
"_. c #C7BCA3",
"`. c #CBBBA3",
"'. c #CDB3AC",
"]. c #CABBA9",
"[. c #D2BFA9",
"{. c #D1B7A7",
"}. c #CEAEB1",
"|. c #D5BAB6",
" X c #D4B3A9",
".X c #89C68D",
"XX c #B1C097",
"oX c #ACCDB0",
"OX c #B0C6AC",
"+X c #C7C19D",
"@X c #C8C2A6",
"#X c #D3C2AA",
"$X c #DAC3B8",
"%X c #CBC6B0",
"&X c #E1CCB7",
"*X c #DBC6C2",
"=X c #E3C4C4",
"-X c #E7CFC6",
";X c #EAC7CB",
":X c #EBD2CD",
">X c #EECED1",
",X c #F3CED3",
"<X c #E5D5D3",
"1X c #EBD3D2",
"2X c #F4D4D3",
"3X c #F6D5D9",
"4X c #FAD6DB",
"5X c #F6DBDC",
"6X c #FADADD",
"7X c #FEDBDF",
"8X c #FDD9DE",
"9X c #FBDDDF",
"0X c #FDDDDE",
"qX c #FDDBDD",
"wX c #F6DBD6",
"eX c #F6D0CC",
"rX c #F5E0DE",
"tX c #FCE2DE",
"yX c #FED6E1",
"uX c #FEDBE1",
"iX c #FDDDE0",
"pX c #FFDCE0",
"aX c #FFDDE1",
"sX c #FFDCE2",
"dX c #FFDFE2",
"fX c #FEDEE1",
"gX c #FFDEE5",
"hX c #FFDDE1",
"jX c #FADDE4",
"kX c #FFE1E2",
"lX c #FFE0E4",
"zX c #FFE1E6",
"xX c #FEE1E3",
"cX c #FEE3E9",
"vX c #F6E3E3",
/* pixels */
"aXaXaXaXaX7XaX7XaXaXaXaXaXaXaXaXaXaXaXaXaXaXaXaXaXaX7XaX7X7X7X7XaXaXaXaXaXaXaXaXaXaXaXaXaXaXaXaXaXaX",
"aXaXaXaX7XaX7XaXaXaXaXaXaXaXaXaXaXaXaXaXaXaXaXaXaXaXaX7X7X7X7X7XaXaXaXaXaXaXaXaXaXaXaXaXaXaXaXaXpXpX",
"aXaXaXaXaX7XaX7XaXaXaXaXaXaXaXaXaXaXaXaXaXaXaXaXaXaX7XaXaX7X7XaXaXaXaXaXaXaXaXaXaXaXaXaXaXaXaXaXpXpX",
"aXaXaXaX7XaX7XaXaXaXaXaXaXaXaXaXaXaXaXaXaXaXaXaXaXaXaX7X7XaX7XaXpXpXpXpXpXpXpXpXpXpXpXpXpXpXpXpXaXaX",
"aXaXaXaXaX7XaX7XaXaXaXaXaXaXaXaXaXaXaXaXaXaXaXaX7XaX7XaXaXaXaXaXpXpXpXpXpXpXpXpXpXpXpXpXpXpXpXpXaXaX",
"aXaXaXaX7XaX7XaXpXpXpXpXpXpXpXpXpXpXaXaXaX7XaX7XaX7XaX7XaXaXaX7XpXpXpXpXpXpXpXpXpXpXpXpXpXpXpXpXpXpX",
"aXaXaXaXaX7XaX7XpXpXpXpXpXpXpXpXaXiXiXaX9XaX9XaX7XaX7XaX7XaX7XaXpXpXpXpXpXpXaXpXpXpXpXpXpXpXpXpXpXpX",
"aXaXaXaX7XaX7XaX7X7X7X7X7X7X7X7X6XaX9X6X7X9X7X9XaX7XaX7XaX7X7X7XaXaXaXaXaXaXaXaXaXaXaXaXaXaXaXaXaXaX",
"7XaX7XaXaXaX7X7X9X6XkX6X5XaX9XpXlX9X9X9X0X4XdXcX6XlXcX6XlXkXlX9X7XaXaXpXsXdX7X9XgXpXpXdXdXaXdXpXaXaX",
"aX7XaXaXaXaXaX7XkX6XaXaXaXkX6X7X4XaXlXdX9XkX4X|.).C.^.-X^.h.Z.C. X4X7XaXjXgXyXsXyXsXpXdX6XdXaXdXaXaX",
"aX7XaXaXaXaXaX7XaXaXlX9XaXaX7XaXtXaX3XjXaX$XN.Y.#X`.#X`.V.E.s.b.N.p.'.kXiXiXgXgXxXlXdXpXdXdX3XlXaXaX",
"7XaXaXaXaXaX7XaX9XlXkX4X6XaXaXaXaX3XiXxXh.A.#XQ.E.E.Q.R.R.E.!.b.1.M.9.Y.$X*X|.*X5X6XgXsXsXsXcXyXaXaX",
"aX7XaXaXaXaXaX7XaXaX7X7XaXaXaX5XdXaX|.p.#X!.!.E.V.Q.E.!.`.Q.E.`.b.7.M.n.1.p.E.C./.4X3XaXgXgXsXdXaXaX",
"aXaXaXaXaXaXaXaXaXaXaXlXaX7XlXlXxXL.A.#X!.b.V.V.N.N.n.E.U.Q.N.(.!.s.2.b.s.<.f.!.#XY.tX6XsXsXsXsXsXpX",
"aXaXaXaXaXaXaXaXaXaXaXlX6X6XlX3XC.#X].m.M.E.E.E.`.E.E.V.!.].l A.!.R.7.8.7.`.v.m.#X].Y.lXyXiXsXpXpXsX",
"aXaXaXaXaXaXaXaXaXaXaXaX7XdX6X}.E.E.m.D.(.!.E.!.E.(.Q.!.D.E._.E.!.E.!.9.s.`.(.a.m.`.f.=XdXsXjXpXpXsX",
"aXaXaXaXaXaXaXaX6XaX6XpX9XkX:XY.E.m.Y.E.D.E.V.B.`.(.D.(.E.9.E.E.m.D.Q.Q.s.8.Q.Q.p.b.[./.jXgXpXpXsXpX",
"aXaXaXaXaXaXaXaXaXdXgXpXkX4X^.].N.Q.Q.!.x.:.e 7 <.`.].D.Q.m.m.Q.B.E.!.Z.U.<.n.`.Q.s.(.Z.wXdXgXpXpXyX",
"aXaXaXaXaXaXaXaX9XaX6XiXkX-XE.E.E.Q.E.D.s , y 3 4 :.E.E.R.`.v.D.!.E.E.E.`.<.s.Q.!.E.U.].'.9XdXyXsXsX",
"aXaXaXaXaXaXaXaX7XpXlX9X|.p.R.R.W.E.(.:., y w t w > 7.Q.`.E.Y.s.Q.E.U.!.!.m.7.Q.E.`.!.!.Y.'.dXsXsXsX",
"aXaXaXaXaXaXaXaXdX6XpX=XY.].`.!.E.`.s.* y w 8 4 y t 3 n.!.Q.V.n.b.Q.Q.E.E.!.<.E.E.E.Q.R.#XN.1XsXsXsX",
"aXaXaXaXaXaXaXaXpXpX5XC.`.E.M.F.!.n., e 8 e 8 w 8 8 3 u F.!.!.E.x.D.(.E.E.!.8.s.!.E.R.E.!.W.}.pXsXpX",
"aXaXaXaXaXaXaXaXaX9XY.#X!.E.s.#Xx.3 w e w 7 w 8 8 8 u 8 1.!.(.E.V.n.U.Q.E.Q.D.<.E.(.`.E.R.[.C.5XsXsX",
"aXaXaXaXaXaXaXaXdX3XZ.[.D.R.B.h.> e w 7 w w 8 w 7 8 8 8 , b.(.(.B.m.n.Q.E.E.!.s.!.Y.E.E.!.`.C.aXsXsX",
"iXsXaX5XkX5XkX7XiX|.).D.V.V.1.e 8 8 y 8 w 8 y 8 8 7 t 8 5 s E.E.f.G.S.f.Q.F.`.Q.R.Q.R.{.v.l.2.).yXjX",
"aX4X7XcX5XsXaXrX9X^.#Xs.D.].2.k 8 8 8 w 8 8 8 w e 8 8 8 8 8 S.!.I.m.Y.f.Q._.U.F.E.!.R.G.~.W ` Q 5XjX",
"7X5XcX4XaX4XaX7X|.C.b.D.`.(.s.4 8 8 8 8 w 8 8 8 9 8 8 q y , :.`.`.F.f.V.a.E.T.p.{.U.~.U.( U &.t.>X7X",
"rX7XjXvXsXkX4XvX$XE.m.!.E.E.7.e 8 8 y 8 8 w t 9 8 y t 6 8 y , 8.E.F._.f.D.a._.p.E.!.XXH.W { =.U K.lX",
"sXyXdX7X<XsXsX<XZ.s.E.Q.(.Z.7.u 8 8 t 8 8 w t 8 8 8 q 6 8 y , 8.`.{.W.8.D.B.z.V.Z.c.W D  ...' $ e.1X",
"sXpXwXwXI.t.kX}.Z.E._.E.U.7.s.8 8 8 e 8 8 e 8 8 t 8 9 y 8 8 w :.D.T.T.n.E.[.s.W.c.x.q.L  .' O.{ ; i.",
"dXOX/ X.=.=.Y g.D.E.E.E.b.s.s.q 8 8 8 8 w 8 w 8 8 8 w 8 8 e 8 6 m.V.!.U.s.S.H.~.U.E [ $.O.o.P C ; L.",
"1XOXu.} #.O.~ V.(.!.R._.N.s.8.8 8 8 w w 8 8 w w 8 8 8 8 8 8 6 ,. XQ.XXW.n.( ) w.( ^ |  .| O.L M = ;X",
"jX0XH.U O.` z.).G.E.W.!.W.w.2.7 8 8 w w w w e w 9 9 6 8 e w 4 j.Q.R.!.m.z.! ] A D +.@.' @...} } - L.",
"7Xr.&.#.O._ N.+XW._.E.~.D.8.<.7 q 8 8 w t w 7 7 w i q t i 3 :.@XR.{.U.>._ ] %.U ' | [ ..[ ..X.+ % ;X",
"<XK./ #.} %.^ z.2.x.!.G.w.g.>.6 9 8 8 8 8 3 7 9 4 8 > 6 1 :.+XQ.).D.l.*.[  .P [ X.L K I X.  C B ; pX",
"tXoX{ ..' ..F m   3.D.z.7.9.1.4 9 9 3 & * f d 9 d d h d ,.~.W.w.T c G K o.#.P '  .} H @ M X + X = =X",
"&X%.O.$.$.$.[ b x O 3.j.(.B.<.k >.-.>.-.g -.-.>.-.-.4.f M.{.;.V c m n P [ [ #.&.+.U H # o @ @ + p 5X",
"t..X( [ U X.*.H x V 3.P.=X|.k.r 7 g >.>.-.-.4.-.-.4.>.g.].E.U.s.c c # H S L I | Z b v c c b . + 2 vX",
";XiXy.K.J./ i.: V 2.*X<X=X}.j.k.5.5.6.6.>.>.l h j 1.1./.K.T.C.- ! z.N H N v N b c c c B # ; + X a jX",
"sX6X<XwX:Xe.eXeX,XjXpXsXaXjXjXgXdXpXaX4XeX=X=X>XaXlXgXyXcXyX6X%XlX*XR V J E B R V ( i.;XK.L.L.*X*XsX",
"pXaXaXpX8X6XiXpXpXpXpXpXpXpXpXiXsXsXsXsXpXpXpXpXpXpXpXpXyXiXpXiX8X4X6X>X3X8X=X>X3X3X6XpXpXpXpXpXiX6X",
"pXaXaXaXpX6XpXpXpXsXaXpXpXpXpX8XsXsXsXsXsXpXpXpXaXaXaXpXpXpXpXpXsXpXsX6XsXcX3XdXyXiX6XaXpXpX7X7XaXaX",
"aXaXaXaXyX7XpXpXsXpXaXaXpXpXpXpXsXsXsXsXsXpXpXpXaXaXaXaXpXaXpXpXpXpXpXpXpXdXiXpXaXaXaXaXpXpXpX7XaXaX",
"aXaXaXaXpX7XpXpXdXsXaXaXpXpXpXpXsXsXsXsXsXpXpXpXaXaXaXaXaXaXpXdXdXaXpXpXpXpXpXpXaXaXaXaXaXaXaXaXpXpX",
"aXaXaXaXpXpXpXpXaXaXaXsXdXpXpXpXgXsXdXsXdXaXaXaXaXaXaXaXpXdXpXpXdXaXpXdXpX7XdXaXaXaXpXaXaXaXaXdXpXpX",
"pXpXaXaXpXpXpXpXaXaXaXpXpXpXpXpXsXsXsXgXdXaXaXaXaXaXaXaXpXdXdXpXpXpXpXdXpXpXdXpXaXaXaXaXaXaXaXaXpXpX",
"pXpXpXaXaXpXpXpXaXaXpXdXpXpXpXpXsXdXdXsXsXdXaXaXaXaXaXaXpXpXsXsXdXdXdXpXaXaXpXpXaXaXaXaXaXpXpXpXpXpX",
"pXpXaXaXpXpXpXpXdXaXdXpXpXpXpXpXgXsXsXsXdXpXaXaXaXaXaXdXdXdXdXdXpXpXpXpXaXdX6XpXpXpXaXaXaXaXpXpXaXaX",
"aXiXaXaXpXpXaXaXaXaXaXaXaXpXsXpXsXsXsXsXsXsXsXsXsXsXsXsXsXsXsXsXpXpXpXpXpXpXpXpXdXpXdXaXpXpXpXpXpXpX",
"iXiXaXaXpXpXaXaXaXaXaXaXaXpXsXpXsXsXsXsXsXdXsXsXsXsXdXsXsXsXdXsXpXpXpXpXpXpXpXpXpXpXpXsXpXpXpXpXpXpX"
};
