/* XPM */
static char *_7fdc3ffc46b4fc6a7d46082727182a2jo3W8gwvgyKj8wNE[] = {
/* columns rows colors chars-per-pixel */
"50 50 12 1 ",
"  c #FEDBDF",
". c #FCDCDF",
"X c #FFDEDF",
"o c #FEDBE1",
"O c #FDDDE0",
"+ c #FFDCE0",
"@ c #FFDDE1",
"# c #FFDCE2",
"$ c #FFDCE3",
"% c #FFDDE3",
"& c #FFDEE2",
"* c #FFDDE4",
/* pixels */
"@@@@@ @ @@@@@@@@@@@@@@@@@@.     @@@@@@@@@@@@@@@@@@",
"@@@@ @ @@@@@@@@@@@@@@@@@@@@.    @@@@@@@@@@@@@@@@ @",
"@@@@@ @ @@@@@@@@@@@@@@@@@@.@  @ @@@@@@@@@@@@@@@@@ ",
"@@@@ @ @@@@@@@@@@@@@@@@@@@@.@@ @ @ @@ @  @ @ @ @@@",
"@@@@@ @ @@@@@@@@@@@@@@@@ @ @  @ @ @ @ @ @ @ @ @ @@",
"@@@@ @ @ @@ .@.@ @.@.@.@@ @@@@ @ @ @ @ @ @ @ @ @ @",
"@@@@@ @ @ @ @.@.@.@.@.@O @@@@@@ @  @@  .@ @ @ @ @ ",
"@@@@ @ @ @ @ @.@.@.@.@.O@ @@@@ @@@@@@@@@@@@@@@@@@@",
" @ @@@  ........OOOOOO@. @@@@.XX@@@@@@@@@@@@@@@@@@",
"@ @@@@@ @..@OOOOOOOOOO.@@ @@@.XX@@@@@@@@@@@@@@@@@@",
"@ @@@@@ O.@.@.@.OOOOOO@. @ @@@@@@@@@@@@@@@@@@@@@@@",
" @@@@@ @O@.@.@.@OOOOOO.@@ @@@@@@@@@@@@@@@@@@@@@@@@",
"@ @@@@@ @.@.@.@.@@.@$ .@ @ @.@@@.@@@@@@.@.@@@@@@@@",
"@@@@@@@@@@@@@@@@@**@*@@*@ @ @@@*$$@$$$@$$$$@ $@$$@",
"@@@@@@@@@@@@@@@@*@@*@*@@@ .@$$@*@$$$$$@$$$$$$$$$$$",
"@@@@@@@@@@@@@@@@$$$@$$$$@@ $$$$$ $$@ $ $$@ $$@ $$$",
"@@@@@@@@ @ @@@@@.XX@@@***@$$$$$$@$$ @$$$$$$$$$$$$$",
"@@@@@@@@@ @.@@@@.X@@@**@**$$ @ $ $$$$$$@ @ $$@ @$$",
"@@@@@@@@ @ .@@@@X@@@@***@@@$@ @$$$$$$$$ @ @$$ @  @",
"@@@@@@@@@ $@@@@@@@@@**@@**$$$$$$$@ $ @$$$$$$$$$$$$",
"@@@@@@@@ @ @@@@@@..@*@***@@ $ @$$$$$$$@ $$$ @$$$$@",
"@@@@@@@@@ @ @@@@@@$@**@**@$$$$$$$@ @ $$$ $$$$$$@$ ",
"@@@@@@@@ @ @@@@@@$$$@@**@*$$$$$ $ @ @$$$@$$$$$$ $$",
"@@@@@@@@@ @ @@@@$$$$***@@*$@ $$@$$$$$$$$$$ @ @$$$$",
"@@@@@@@@@@@@@@@@@@@@. $$$$@$$ @$$$$@$$$$$$ $$$ $ @",
"@ @@@@@@@@@@@@@@@@@@.$$$$$ $$$$$$$$ $$$@$$@$$$@$$$",
"  @ @@@@@@@@@@@@@@@@@ @$$ @$$$$ @**@@@*@@@$$ @$$$@",
" @ @ @@@@@@@@@@@@@@@ @ @$$$$ $$@@@@@.@@@@@@@@@@@ .",
"  @ @@@@@@@@@@@@@@@@@ @ @**@@@**@@@@@@@@@@@@@@@  @",
"@@ @ @@@@@@@@@@@@*@@ @ @@@@@@@@@@@@@@@@@@@@@@@ @@ ",
" @@@@@@@@@@@@@@@@**@@  $@@@@@@@@ @ @ @ @@@@@@  @ @",
"@@@@@@@@@@@@@@@@**@@ @.@@@@@@@@@@ @ @ @ @@@@@ @ @ ",
" @@ @@@@@@@@ @ @$$ $$  @@@@@@@@@@@@@@@@@@@@@@@@@@@",
"@@@@ @@ @@@@@ @ $$@$@.@ @@@@@@@@@@@@@@@@@@@@@@@@@ ",
" @@ @@@@@@@@ @ @ @$@$..@@@@@@@@@@@@@@@@@@@@@@@@@ @",
"@@@@ @@ @@@@@ @ $$$ $ @ @@@@@@@@@@@@@@@@@@@@@@@@@ ",
" @@@ @@@@@@@ @ @ @$$$@ @*@@@@@@@@@@@@@@@@@@@@@@@ @",
"@@@ @@@ @@@@@ @ $$$$$ @ ****@@@@@@@@@@@@@@@@@@@@@ ",
" @@@ @@@@@@@ @ @$$$$$  @**@@@@@@@@@@@@@@@@@@@@@@ @",
"@@@ @@@ @@@@@ @ @ $$@.@ *****@@@@@@@@@@@@@@@@@@@@@",
"@@@@ @ @@@@@ @ @$$$@$  @@@@@ @ @     @ @$    @ @  ",
"@@@@@ @ @@@@@ @ @ $ @.@ @@@@@ @.@ @ @ @@  @.@  @@@",
"@@@@ @ @@@@@ @ @$$$$$@ @@@@@@@@@@@@@@@@@@@@@@@@@ @",
"@@@@@ @ @@@@@ @ $$$@$ @ @@@@@@@@@@@@@@@@@@@@@@@@@ ",
"@@@@ @ @@@@@ @ @*@**@@@@@@@@@@@@@@@@@@@@@@@@@@@@@@",
"@@@@@ @ @@@@@ @ *@*@*@@@@@@@@@@@@@@@ @@ @@@@@  @@ ",
"@@@@ @ @@@@@ @ @**@**@@@@@@@@@@@@@@@@  @@@@@@@@   ",
"@@@@@ @ @@@@@ @ @***@@@@@@@@@@*@@@@@@@@ @@@@@@ @@@",
".@@@.@@@@@@@@$$ $$$$@*$$$@@$$@@$ @ @ @ @@@@@ @ @ @",
"@.@@@.@@@@@@.$$$@ $$@@$$$@@$$*@$@ @ @ @ @@@@@ @ @ "
};
