/* XPM */
static char *_3a860a842124f1fa438c894adae22f1LYavNltIOwihr36G[] = {
/* columns rows colors chars-per-pixel */
"50 50 256 2 ",
"   c #006907",
".  c #347307",
"X  c #717202",
"o  c #8E0100",
"O  c #940201",
"+  c #9C0301",
"@  c #990606",
"#  c #9D1403",
"$  c #9F0C14",
"%  c #A30202",
"&  c #AB0201",
"*  c #A70807",
"=  c #B40202",
"-  c #BB0201",
";  c #BD0B02",
":  c #B3020A",
">  c #BC010B",
",  c #B80B09",
"<  c #A91502",
"1  c #B71805",
"2  c #A90713",
"3  c #B90514",
"4  c #B91619",
"5  c #AE141E",
"6  c #993004",
"7  c #AA2906",
"8  c #B62A08",
"9  c #AB3702",
"0  c #B73709",
"q  c #A82613",
"w  c #B83614",
"e  c #AC3215",
"r  c #B81125",
"t  c #B92B21",
"y  c #C30202",
"u  c #CB0102",
"i  c #C30D01",
"p  c #CD0C02",
"a  c #C3020B",
"s  c #C7070A",
"d  c #D20201",
"f  c #DA0101",
"g  c #DA010B",
"h  c #D60806",
"j  c #D71505",
"k  c #C80A15",
"l  c #D90615",
"z  c #CB1718",
"x  c #D41818",
"c  c #C81706",
"v  c #E30201",
"b  c #EB0103",
"n  c #EA010B",
"m  c #E6050B",
"M  c #F40202",
"N  c #FC0302",
"B  c #FD010B",
"V  c #F70708",
"C  c #E71507",
"Z  c #F71505",
"A  c #E90415",
"S  c #FD0214",
"D  c #F90518",
"F  c #E81714",
"G  c #F91817",
"H  c #D62708",
"J  c #D62716",
"K  c #CB3816",
"L  c #CD2F0D",
"P  c #E52508",
"I  c #E73213",
"U  c #D71828",
"Y  c #C01B39",
"T  c #FE0524",
"R  c #FC1927",
"E  c #EE102A",
"W  c #CA2929",
"Q  c #D82828",
"!  c #D83535",
"~  c #CF362E",
"^  c #E72628",
"/  c #FA2324",
"(  c #F83628",
")  c #E62B36",
"_  c #FB2736",
"`  c #F93937",
"'  c #E7372E",
"]  c #AA4505",
"[  c #AA461A",
"{  c #B74817",
"}  c #B95419",
"|  c #B1520D",
" . c #8E700A",
".. c #B26F11",
"X. c #B45326",
"o. c #B5682A",
"O. c #C5571B",
"+. c #CF4C0E",
"@. c #EB4413",
"#. c #C96D14",
"$. c #C64924",
"%. c #D55426",
"&. c #D84637",
"*. c #CF4F2F",
"=. c #E5473C",
"-. c #FA453A",
";. c #EF502D",
":. c #CF7031",
">. c #EB702C",
",. c #FC1B49",
"<. c #FC3946",
"1. c #FA3349",
"2. c #B47542",
"3. c #DC5758",
"4. c #D34F45",
"5. c #E64644",
"6. c #FB4648",
"7. c #F75548",
"8. c #FD4B53",
"9. c #F94856",
"0. c #E75859",
"q. c #FD545A",
"w. c #FA5A59",
"e. c #E25F4B",
"r. c #D56A48",
"t. c #EB674B",
"y. c #EB6657",
"u. c #F96659",
"i. c #F36E54",
"p. c #FF5D66",
"a. c #F95766",
"s. c #F25465",
"d. c #DA7973",
"f. c #FD6465",
"g. c #FA6968",
"h. c #FA7769",
"j. c #FE6A75",
"k. c #FD737A",
"l. c #FD7978",
"z. c #E6746F",
"x. c #DE5565",
"c. c #049300",
"v. c #2C9B05",
"b. c #34930C",
"n. c #2BA503",
"m. c #479B03",
"M. c #509208",
"N. c #47A904",
"B. c #57AA07",
"V. c #58B205",
"C. c #5AA816",
"Z. c #54B410",
"A. c #68B608",
"S. c #67AA16",
"D. c #68B718",
"F. c #72B114",
"G. c #5EB823",
"H. c #6BAF2C",
"J. c #70962A",
"K. c #74CB19",
"L. c #74D417",
"P. c #6DC411",
"I. c #75C727",
"U. c #6FCB34",
"Y. c #5FC82E",
"T. c #7BAF42",
"R. c #7FCB4F",
"E. c #82B60B",
"W. c #85BB2D",
"Q. c #92981A",
"!. c #F58A38",
"~. c #83C516",
"^. c #87D328",
"/. c #8ACE34",
"(. c #8CE42F",
"). c #B78857",
"_. c #8EB14F",
"`. c #96B96A",
"'. c #AFB26C",
"]. c #A89666",
"[. c #E78652",
"{. c #CE8D78",
"}. c #F98478",
"|. c #FC9377",
" X c #F0876B",
".X c #D88251",
"XX c #8BC84B",
"oX c #95CA58",
"OX c #9AD454",
"+X c #92D14B",
"@X c #9BC566",
"#X c #9BD568",
"$X c #B0CF6E",
"%X c #9FDF59",
"&X c #C3D67C",
"*X c #FC7C83",
"=X c #FC7A89",
"-X c #FD7A8D",
";X c #A9B596",
":X c #FE8384",
">X c #F98787",
",X c #F89386",
"<X c #FE8B97",
"1X c #EC9794",
"2X c #FC9C9C",
"3X c #FA9696",
"4X c #E7908A",
"5X c #C6B98D",
"6X c #F5A497",
"7X c #FB9CA6",
"8X c #F794A9",
"9X c #FEA4AB",
"0X c #FAA8A5",
"qX c #FBA8B4",
"wX c #FDB7B9",
"eX c #F4AFA7",
"rX c #DB898D",
"tX c #B7C885",
"yX c #BBD095",
"uX c #BEC6A1",
"iX c #CAD69C",
"pX c #D3D499",
"aX c #C5CE8B",
"sX c #D7D7AA",
"dX c #DCD5B7",
"fX c #D2CDAB",
"gX c #FEC3BB",
"hX c #E6DAB8",
"jX c #EACCAF",
"kX c #DBE2B8",
"lX c #FDBAC1",
"zX c #FBC7C6",
"xX c #F9D6CA",
"cX c #FECCD6",
"vX c #FDD5D5",
"bX c #FDDCD5",
"nX c #FED5DC",
"mX c #F5DDDC",
"MX c #FDDBDD",
"NX c #F6DAD7",
"BX c #EAD9C6",
"VX c #FDE1D5",
"CX c #FDE1DC",
"ZX c #F5E2D8",
"AX c #EDE3C9",
"SX c #FFD6E2",
"DX c #FFDCE1",
"FX c #FEDCEB",
"GX c #F9D8E8",
"HX c #FBCBE1",
"JX c #F6E3E4",
"KX c #FDE2E3",
"LX c #FDE1EA",
"PX c #F7E5E7",
"IX c #FDE1F2",
"UX c #DDD4CF",
/* pixels */
"DXDXKXDXMXMXDXDXCXMXSXnXVXSXVXLXCXMXFXSXMXMXDXpXtXGXSXmXMXSXbXZXMXJXGXMXLXFXDXMXNXKXKXFXDXCXMXKXDXMX",
"DXDXDXDXDXDXMXDXSXMXAX$XGXbXKXiXAXPXFXKXGXMXLXXXH.bXVXFXSXDXMXGXKXDXCXxXZXCXbXSXLXSXMXLXSXCXDXKXDXDX",
"DXDXKXDXMXDXDXDXDXkXoXXXVXMXtXF.+XsXKXNXVXFXxX+X`.SXhXDXSXbXDXnXJXDXCXIXCXFXAXiXmXDXbXMXDXDXFXMXMXDX",
"DXDXMXDXDXDXDXMXKX@XOXoXLXAXD.A.P.~.sXVXbXNXKXOX`.vX%XyXZXFXJXBX$XiXCXVXNXpX_.D.tXCXMXMXDXDXSXKXDXDX",
"DXMXDXDXDXDXDXDXLX@XoX#XUXfXL.A.Z.P.~.sXFXdXiX%X_.xX(.%X%XVXpX^.U.+XAXCX$X^.B.N.W.AXKXmXDXMXSXMXDXDX",
"DXKXDXDXDXMXDXMXGXpX+X#X@XpXF.F.B.B.L.F.hXXXR.+XG.iX(.+X$X&X/.(.I.(.$XpX^.N.m.C.K.hXGXDXMXMXKXMXDXDX",
"DXDXDXDXDXMXDXMXbXDX$XOXOX$XW.D.F.B.S.F.K.L.G.U.V.OXOXoXOX/.K.^.^.I.^.P.B.m.M.V.L.sXMXCXMXDXKXMXMXDX",
"KXDXDXDXDXDXDXDXDXGXnXtXXXXXH.S.S.M.V.V.S.D.U.H.A.H.+XU.G.B.A.^.U./.^.C.C.M.C.A.K.xXKXbXMXFXDXMXKXDX",
"MXKXSXnXDXFXMXhXfXaX&XfX`.U.I.V.n.M.m.F.C.G.U.H.F.D.A.M.m.B.B.C.Y.U.N.c.c.n.V.L.yXbXGXmXbXDXKXVXMXCX",
"bXSXCXCXBX@XG.S.G.n.n.m.T.'.5X5X'.J.v.n.v.G.U.H.S.M.. b.m.v.b.M.Q. .).{.]._.F.V.V.`.dXmXCXSXnXSXMXMX",
"GXNXCX@XN.M.T.;XuXfX1X1Xh.l.f.7XqX<X2. .o.#... ..     . X X 9 %.e.E 8XzX*X>XeXd.).J.v.H.`.pXkXsXNXNX",
"GXGXtX_.dXnXcXZX8X*X<X9Xl.|.1X9XeX3X=X8.4.r.x.! x ~ 8 ! j ,.9X0X9XeXeX<X*Xh.2XeXj. X6XfXuXuXdXNXMXMX",
"FXvXBXCXnXDX8Xf.f.<.` w.u.3XqX*Xq.p.wXcXzXwXwX X+.Q f L #.3.0X3.y.,X<Xk.7.q.u.<X*X<.}.2XnXSXCXGXDXKX",
"MXCXLXSXGXgX|.f.i.u.6.l.6X3Xp.<.>.q.qXgX7X3XwXqX}.,X{.x.= z.4X| K z.,X! d f Q y.j.7.t.>X7XDXNXSXDXDX",
"SXNXNXKX0Xh.:Xp.;.6.<X7X3X6.u.q.>.y.9X>X+.L 6XwX7X3X3.z.8X7X7X4XrX9Xk.- O.O.y l j / 7.u.>X0XDXGXSXDX",
"MXKXFXwXl.6.M G B R 8._ N G f.` M 8.>X=X).3.<X>X:Xz.] %.2X,Xh.=X3X>X! u W &.! x u g g G ) g.6XbXDXDX",
"MXZXSX>Xq./ 6.R B Z M -.r.N G b Z M V g.z.u.g.5.Q 0.d.1X<X9.> l 5.W > h y Q ) , u z 1 u ^ ^ 8.qXMXGX",
"KXvXgXh.` y._ -..XM 6.7.@.b V V f ) ^ f l f y s > y 4.p.5., e [ % y = u s % - 3 u $.[ = A ` t.6.bXFX",
"nXvXh.( i.u._ -.;.N k.9.G _ Z v L :.f m h h g +.$.i & : & - w o.4 % , - > % * * > i ~ r n ' t.` 2XGX",
"FX9Xw.l.p.G 6.6.N B ` G M ^ _ v L +.v s f u y } } = c , , : 4 Y 4 : ; e X.& & & & i k y j f ) *Xk.MX",
"MX>X2X1.w.,X9.S S C N M j :.F A m A s d x x f k k : - i & 4 + % + * & e [ % % > a & - y W z n ) 9.zX",
"vXg.j.:Xg.>Xh.M [.H S n C O.j A g l f v &.) u k k ; = , 6 t r @ 2 + + % % @ % 3 o.q % y ! X.p h =.eX",
"cX6.|.<X9.h. X_ ;.-.8X Xb l d v d v h *.:.y y s , - = % o.# % O % & @ % * O & k } 6 % y W W d k h.wX",
"zX2X3X<X1.[.<Xj.^ a.g.>X` v ) f.j.J y L 9 - i = - l a @ o * + + % * 5 + @ @ + 4 a & 3 = ; Q k j &.0X",
"cX2X3X1X3X9X-Xy.0.8.@. X9.f 6.9.a.8.d i u y > > - % 5 5 @ @ % % $ 6 q r o @ : = , & : - u x s U m zX",
"cXj.}.2XqX2Xl.p.p.6.+.7.9.<.( H #.W R f h j i = 1 X.q 4 + O o @ < X.6 @ % r < @ & > < 7 = u ~ W Q bX",
"SXk.|.3X*Xl.|.k.j.j.9.8.w.q.G j +.K S D V m D x * [ W 2 + = k O O q # O : $.o.O # % 0 { : - r.&.0.nX",
"DX6X}.}.>Xi.|.=X0.i.>X8.w.q.1.M l R N N v *.~ U & @ % O : l s W @ o o + & 1 7 + : & < < > k ~ F 7XSX",
"vXwXj.l.>Xg.g.>X-.[.g.q.M :.=.T Z N R G f o.o.U x & & + > 8 6 z * % * & , = & : & = - - = , ^ ! vXCX",
"KXDX7X:Xl.l.k.3Xf.B g.j.G +.&.1.N R <.( C & y =.z h h s > K } , * = - - & % : % < = : 0 w ; F 3XZXMX",
"mXKXmX*X|.:X>X}.k.j.l.q.( b 6._ N S %.%.D ,.5.9.u l - h i > O * > = < 4 & & & { w % = 8 1 u ! vXDXMX",
"SXMXSXwXl.}.k.p. X*Xj._ t.8.<./ N N +.} n G ` x v ] [ a i - , = ; + { e * * & 8 < > = , y / 1XnXSXSX",
"mXDXSXmXwXk.k.f.i.i.a.T !.t.,.N B N v A C v g f g 0 ] a k = > > & = 1 < * & & & = & = : =.z.bXFXDXDX",
"SXKXPXnXMXgXk.:Xl.8.u.8.G ;.<.Z ' V M V n A x Q U - % , - - w r a = = * & & & ; 1 : y c 4.bXKXnXDXMX",
"vXKXKXnXnXCX0X=X}.h.9.-.y._ Z G :.I S v V f O.} h p a - i L { : * * % e w > & e { * s ) zXnXLXnXDXDX",
"DXKXSXPXnXvXbX<X}.g.p.` >.6._ _ ( Z n F F n j H s y K z 3 & < y - : & 8 7 & & , & = U zXbXJXSXbXMXDX",
"KXMXDXDXLXJXKXvX2X*Xa.[.-./ / ( ;.Z Z I o.A d f g g O.0 > - , - = 2 = = * & & : ~ t eXSXMXJXSXDXDXDX",
"MXSXMXSXDXDXMXPXnX:X|.[.u.8.` T >.@.S P I b g L J y 1 ; y - & & | e & & 7 8 , 1 ~ qXIXvXZXGXLXZXMXDX",
"KXKXSXDXvXSXDXnXnXwXh.l.q.q.6.-./ C b G A C f $.X.h y a = = = - 7 < & = 7 [ = p eXCXFXZXKXSXmXKXDXDX",
"MXMXKXCXJXKXGXDXGXMXlX<Xp.u.6.>.>.T N C :.Q m f y u s u $.e = = > = * & = > s qXFXnXDXDXKXSXDXCXDXDX",
"DXDXDXKXDXDXDXDXMXMXPXzX:Xi. X( R C P R I F l j x p u ; 9 ; : - 9 7 - & $.z 6XSXMXMXMXDXDXDXDXDXMXMX",
"DXDXDXDXDXMXDXMXDXDXDXMX3X,X7.-.<.R S %.=.m f l ..c u u - s > & [ 4 = 1 ~ 8XIXZXMXMXMXDXMXDXDXDXKXDX",
"DXDXDXDXMXDXDXDXKXKXSXSXbX<X,X<.` q._ I ' ^ d u J p y p %.1 = - y - k z eXLXSXmXDXDXDXDXDXDXDXDXMXDX",
"MXKXDXDXMXDXDXMXSXKXCXvXMXMX3Xk.9.>.>.A D A ^ ' g u y ; %.8 y K O.y ~ zXKXPXNXSXDXKXDXDXDXMXKXDXDXDX",
"DXDXKXMXDXDXDXDXLXSXmXKXSXDXNX7X:X7.R ^ b n +.#.m p h y y u y 0 +.x vXMXNXnXMXKXDXKXDXDXDXKXDXMXDXDX",
"DXDXDXDXMXDXMXDXDXKXMXKXDXSXMXvX2Xf.<.` y.^ C x U h $.$.d f p m ) zXMXZXKXGXIXZXDXMXDXDXDXMXDXDXDXDX",
"DXDXDXDXDXDXDXMXCXvXLXPXMXMXSXKXMXwX-X1.i.=.A b g f H j H %.n s.CXDXDXDXMXDXLXnXDXKXDXDXDXDXDXMXMXMX",
"DXDXKXDXMXDXDXDXMXPXSXSXZXCXnXSXGXFXMX7X,.R G m I H v n ( r.0XDXMXDXGXSXJXSXMXVXDXDXDXDXDXMXDXDXDXDX",
"MXDXDXDXMXDXDXDXDXDXKXDXDXDXDXDXPXSXnXJXNX-X,.T -.` B E j.NXJXnXMXMXDXDXDXDXDXMXDXKXMXDXDXMXDXDXDXMX",
"MXKXDXDXDXDXMXKXDXDXDXMXDXDXDXDXDXSXDXSXDXMXbXeX<Xk.>XwXDXDXSXLXDXDXMXDXMXDXDXDXDXDXDXDXDXDXMXDXDXDX"
};
